<svg width="183" height="41" viewBox="0 0 183 41" fill="none" xmlns="http://www.w3.org/2000/svg">
<g filter="url(#filter0_d)">
<path d="M4.96547 0.499998H19.2755C22.6955 0.499998 25.7105 1.16 28.3205 2.48C30.9605 3.77 33.0005 5.6 34.4405 7.97C35.9105 10.34 36.6455 13.1 36.6455 16.25C36.6455 19.4 35.9105 22.16 34.4405 24.53C33.0005 26.9 30.9605 28.745 28.3205 30.065C25.7105 31.355 22.6955 32 19.2755 32H4.96547V0.499998ZM18.9155 26.015C22.0655 26.015 24.5705 25.145 26.4305 23.405C28.3205 21.635 29.2655 19.25 29.2655 16.25C29.2655 13.25 28.3205 10.88 26.4305 9.14C24.5705 7.37 22.0655 6.485 18.9155 6.485H12.2555V26.015H18.9155ZM48.3532 10.985C49.1932 9.815 50.3182 8.93 51.7282 8.33C53.1682 7.73 54.8182 7.43 56.6782 7.43V13.91C55.8982 13.85 55.3732 13.82 55.1032 13.82C53.0932 13.82 51.5182 14.39 50.3782 15.53C49.2382 16.64 48.6682 18.32 48.6682 20.57V32H41.6482V7.79H48.3532V10.985ZM72.1526 32.36C69.6026 32.36 67.3076 31.835 65.2676 30.785C63.2576 29.705 61.6826 28.22 60.5426 26.33C59.4026 24.44 58.8326 22.295 58.8326 19.895C58.8326 17.495 59.4026 15.35 60.5426 13.46C61.6826 11.57 63.2576 10.1 65.2676 9.05C67.3076 7.97 69.6026 7.43 72.1526 7.43C74.7026 7.43 76.9826 7.97 78.9926 9.05C81.0026 10.1 82.5776 11.57 83.7176 13.46C84.8576 15.35 85.4276 17.495 85.4276 19.895C85.4276 22.295 84.8576 24.44 83.7176 26.33C82.5776 28.22 81.0026 29.705 78.9926 30.785C76.9826 31.835 74.7026 32.36 72.1526 32.36ZM72.1526 26.6C73.9526 26.6 75.4226 26 76.5626 24.8C77.7326 23.57 78.3176 21.935 78.3176 19.895C78.3176 17.855 77.7326 16.235 76.5626 15.035C75.4226 13.805 73.9526 13.19 72.1526 13.19C70.3526 13.19 68.8676 13.805 67.6976 15.035C66.5276 16.235 65.9426 17.855 65.9426 19.895C65.9426 21.935 66.5276 23.57 67.6976 24.8C68.8676 26 70.3526 26.6 72.1526 26.6ZM104.835 7.43C107.835 7.43 110.25 8.33 112.08 10.13C113.94 11.93 114.87 14.6 114.87 18.14V32H107.85V19.22C107.85 17.3 107.43 15.875 106.59 14.945C105.75 13.985 104.535 13.505 102.945 13.505C101.175 13.505 99.7649 14.06 98.7149 15.17C97.6649 16.25 97.1399 17.87 97.1399 20.03V32H90.1199V7.79H96.8249V10.625C97.7549 9.605 98.9099 8.825 100.29 8.285C101.67 7.715 103.185 7.43 104.835 7.43ZM145.212 19.985C145.212 20.075 145.167 20.705 145.077 21.875H126.762C127.092 23.375 127.872 24.56 129.102 25.43C130.332 26.3 131.862 26.735 133.692 26.735C134.952 26.735 136.062 26.555 137.022 26.195C138.012 25.805 138.927 25.205 139.767 24.395L143.502 28.445C141.222 31.055 137.892 32.36 133.512 32.36C130.782 32.36 128.367 31.835 126.267 30.785C124.167 29.705 122.547 28.22 121.407 26.33C120.267 24.44 119.697 22.295 119.697 19.895C119.697 17.525 120.252 15.395 121.362 13.505C122.502 11.585 124.047 10.1 125.997 9.05C127.977 7.97 130.182 7.43 132.612 7.43C134.982 7.43 137.127 7.94 139.047 8.96C140.967 9.98 142.467 11.45 143.547 13.37C144.657 15.26 145.212 17.465 145.212 19.985ZM132.657 12.74C131.067 12.74 129.732 13.19 128.652 14.09C127.572 14.99 126.912 16.22 126.672 17.78H138.597C138.357 16.25 137.697 15.035 136.617 14.135C135.537 13.205 134.217 12.74 132.657 12.74Z" fill="#F1F1F1"/>
<path d="M170.226 32L162.621 21.065L155.151 32H146.781L158.436 15.98L147.366 0.499998H155.646L162.891 10.715L170.001 0.499998H177.876L166.896 15.71L178.641 32H170.226Z" fill="#5D5FEF"/>
</g>
<defs>
<filter id="filter0_d" x="0.965469" y="0.5" width="181.675" height="39.86" filterUnits="userSpaceOnUse" color-interpolation-filters="sRGB">
<feFlood flood-opacity="0" result="BackgroundImageFix"/>
<feColorMatrix in="SourceAlpha" type="matrix" values="0 0 0 0 0 0 0 0 0 0 0 0 0 0 0 0 0 0 127 0"/>
<feOffset dy="4"/>
<feGaussianBlur stdDeviation="2"/>
<feColorMatrix type="matrix" values="0 0 0 0 0 0 0 0 0 0 0 0 0 0 0 0 0 0 0.25 0"/>
<feBlend mode="normal" in2="BackgroundImageFix" result="effect1_dropShadow"/>
<feBlend mode="normal" in="SourceGraphic" in2="effect1_dropShadow" result="shape"/>
</filter>
</defs>
</svg>
